<mxfile host="app.diagrams.net" modified="2021-06-16T19:30:38.261Z" agent="5.0 (Macintosh; Intel Mac OS X 10_15_6) AppleWebKit/605.1.15 (KHTML, like Gecko) Version/14.0.3 Safari/605.1.15" etag="AVJmDijvah38FcB8myiW" version="14.7.10" type="github">
  <diagram id="iqxqFPZ2kNuXMCKBthth" name="Page-1">
    <mxGraphModel dx="936" dy="568" grid="1" gridSize="10" guides="1" tooltips="1" connect="1" arrows="1" fold="1" page="1" pageScale="1" pageWidth="827" pageHeight="1169" math="0" shadow="0">
      <root>
        <mxCell id="0" />
        <mxCell id="1" parent="0" />
        <mxCell id="S_tp8DzsUdrBKuvZaSPz-33" style="edgeStyle=orthogonalEdgeStyle;rounded=0;orthogonalLoop=1;jettySize=auto;html=1;endArrow=none;endFill=0;" parent="1" source="S_tp8DzsUdrBKuvZaSPz-1" target="S_tp8DzsUdrBKuvZaSPz-19" edge="1">
          <mxGeometry relative="1" as="geometry" />
        </mxCell>
        <mxCell id="S_tp8DzsUdrBKuvZaSPz-34" style="edgeStyle=orthogonalEdgeStyle;rounded=0;orthogonalLoop=1;jettySize=auto;html=1;entryX=0.5;entryY=0;entryDx=0;entryDy=0;endArrow=none;endFill=0;" parent="1" source="S_tp8DzsUdrBKuvZaSPz-1" target="S_tp8DzsUdrBKuvZaSPz-21" edge="1">
          <mxGeometry relative="1" as="geometry" />
        </mxCell>
        <mxCell id="S_tp8DzsUdrBKuvZaSPz-35" style="edgeStyle=orthogonalEdgeStyle;rounded=0;orthogonalLoop=1;jettySize=auto;html=1;endArrow=none;endFill=0;" parent="1" source="S_tp8DzsUdrBKuvZaSPz-1" target="S_tp8DzsUdrBKuvZaSPz-25" edge="1">
          <mxGeometry relative="1" as="geometry" />
        </mxCell>
        <mxCell id="S_tp8DzsUdrBKuvZaSPz-36" style="edgeStyle=orthogonalEdgeStyle;rounded=0;orthogonalLoop=1;jettySize=auto;html=1;entryX=0.5;entryY=0;entryDx=0;entryDy=0;endArrow=none;endFill=0;" parent="1" source="S_tp8DzsUdrBKuvZaSPz-1" target="S_tp8DzsUdrBKuvZaSPz-26" edge="1">
          <mxGeometry relative="1" as="geometry" />
        </mxCell>
        <mxCell id="S_tp8DzsUdrBKuvZaSPz-37" style="edgeStyle=orthogonalEdgeStyle;rounded=0;orthogonalLoop=1;jettySize=auto;html=1;endArrow=none;endFill=0;" parent="1" source="S_tp8DzsUdrBKuvZaSPz-1" target="S_tp8DzsUdrBKuvZaSPz-27" edge="1">
          <mxGeometry relative="1" as="geometry" />
        </mxCell>
        <mxCell id="S_tp8DzsUdrBKuvZaSPz-1" value="data" style="aspect=fixed;perimeter=ellipsePerimeter;html=1;align=center;shadow=0;dashed=0;spacingTop=3;image;image=img/lib/active_directory/folder.svg;" parent="1" vertex="1">
          <mxGeometry x="250" y="90" width="36.5" height="50" as="geometry" />
        </mxCell>
        <mxCell id="S_tp8DzsUdrBKuvZaSPz-38" style="edgeStyle=orthogonalEdgeStyle;rounded=0;orthogonalLoop=1;jettySize=auto;html=1;entryX=0.5;entryY=0;entryDx=0;entryDy=0;endArrow=none;endFill=0;" parent="1" source="S_tp8DzsUdrBKuvZaSPz-2" target="S_tp8DzsUdrBKuvZaSPz-7" edge="1">
          <mxGeometry relative="1" as="geometry" />
        </mxCell>
        <mxCell id="S_tp8DzsUdrBKuvZaSPz-39" style="edgeStyle=orthogonalEdgeStyle;rounded=0;orthogonalLoop=1;jettySize=auto;html=1;endArrow=none;endFill=0;" parent="1" source="S_tp8DzsUdrBKuvZaSPz-2" target="S_tp8DzsUdrBKuvZaSPz-15" edge="1">
          <mxGeometry relative="1" as="geometry" />
        </mxCell>
        <mxCell id="S_tp8DzsUdrBKuvZaSPz-40" style="edgeStyle=orthogonalEdgeStyle;rounded=0;orthogonalLoop=1;jettySize=auto;html=1;endArrow=none;endFill=0;" parent="1" source="S_tp8DzsUdrBKuvZaSPz-2" target="S_tp8DzsUdrBKuvZaSPz-5" edge="1">
          <mxGeometry relative="1" as="geometry" />
        </mxCell>
        <mxCell id="S_tp8DzsUdrBKuvZaSPz-2" value="scripts&lt;br&gt;" style="aspect=fixed;perimeter=ellipsePerimeter;html=1;align=center;shadow=0;dashed=0;spacingTop=3;image;image=img/lib/active_directory/folder.svg;" parent="1" vertex="1">
          <mxGeometry x="690" y="90" width="36.5" height="50" as="geometry" />
        </mxCell>
        <mxCell id="S_tp8DzsUdrBKuvZaSPz-5" value="make_documents_reference_doc.py" style="verticalLabelPosition=bottom;html=1;verticalAlign=top;strokeWidth=1;align=center;outlineConnect=0;dashed=0;outlineConnect=0;shape=mxgraph.aws3d.file;aspect=fixed;strokeColor=#292929;" parent="1" vertex="1">
          <mxGeometry x="840" y="218.39999999999998" width="13.44" height="30.8" as="geometry" />
        </mxCell>
        <mxCell id="S_tp8DzsUdrBKuvZaSPz-41" style="edgeStyle=orthogonalEdgeStyle;rounded=0;orthogonalLoop=1;jettySize=auto;html=1;endArrow=none;endFill=0;" parent="1" source="S_tp8DzsUdrBKuvZaSPz-7" target="S_tp8DzsUdrBKuvZaSPz-9" edge="1">
          <mxGeometry relative="1" as="geometry" />
        </mxCell>
        <mxCell id="S_tp8DzsUdrBKuvZaSPz-7" value="utils" style="aspect=fixed;perimeter=ellipsePerimeter;html=1;align=center;shadow=0;dashed=0;spacingTop=3;image;image=img/lib/active_directory/folder.svg;" parent="1" vertex="1">
          <mxGeometry x="600" y="209.2" width="29.2" height="40" as="geometry" />
        </mxCell>
        <mxCell id="S_tp8DzsUdrBKuvZaSPz-9" value="common_utils.py" style="verticalLabelPosition=bottom;html=1;verticalAlign=top;strokeWidth=1;align=center;outlineConnect=0;dashed=0;outlineConnect=0;shape=mxgraph.aws3d.file;aspect=fixed;strokeColor=#292929;" parent="1" vertex="1">
          <mxGeometry x="607.88" y="300" width="13.44" height="30.8" as="geometry" />
        </mxCell>
        <mxCell id="S_tp8DzsUdrBKuvZaSPz-42" style="edgeStyle=orthogonalEdgeStyle;rounded=0;orthogonalLoop=1;jettySize=auto;html=1;endArrow=none;endFill=0;" parent="1" source="S_tp8DzsUdrBKuvZaSPz-15" target="S_tp8DzsUdrBKuvZaSPz-16" edge="1">
          <mxGeometry relative="1" as="geometry" />
        </mxCell>
        <mxCell id="S_tp8DzsUdrBKuvZaSPz-15" value="css" style="aspect=fixed;perimeter=ellipsePerimeter;html=1;align=center;shadow=0;dashed=0;spacingTop=3;image;image=img/lib/active_directory/folder.svg;" parent="1" vertex="1">
          <mxGeometry x="693.65" y="209.2" width="29.2" height="40" as="geometry" />
        </mxCell>
        <mxCell id="S_tp8DzsUdrBKuvZaSPz-16" value="style.css" style="verticalLabelPosition=bottom;html=1;verticalAlign=top;strokeWidth=1;align=center;outlineConnect=0;dashed=0;outlineConnect=0;shape=mxgraph.aws3d.file;aspect=fixed;strokeColor=#292929;" parent="1" vertex="1">
          <mxGeometry x="701.53" y="300" width="13.44" height="30.8" as="geometry" />
        </mxCell>
        <mxCell id="S_tp8DzsUdrBKuvZaSPz-19" value="bundle_cis_server.json" style="verticalLabelPosition=bottom;html=1;verticalAlign=top;strokeWidth=1;align=center;outlineConnect=0;dashed=0;outlineConnect=0;shape=mxgraph.aws3d.file;aspect=fixed;strokeColor=#292929;" parent="1" vertex="1">
          <mxGeometry x="60" y="209.2" width="13.44" height="30.8" as="geometry" />
        </mxCell>
        <mxCell id="S_tp8DzsUdrBKuvZaSPz-67" style="edgeStyle=orthogonalEdgeStyle;rounded=0;orthogonalLoop=1;jettySize=auto;html=1;endArrow=none;endFill=0;" parent="1" edge="1">
          <mxGeometry relative="1" as="geometry">
            <mxPoint x="175" y="240" as="sourcePoint" />
            <mxPoint x="101" y="310" as="targetPoint" />
            <Array as="points">
              <mxPoint x="175" y="270" />
              <mxPoint x="101" y="270" />
            </Array>
          </mxGeometry>
        </mxCell>
        <mxCell id="S_tp8DzsUdrBKuvZaSPz-68" style="edgeStyle=orthogonalEdgeStyle;rounded=0;orthogonalLoop=1;jettySize=auto;html=1;endArrow=none;endFill=0;" parent="1" source="S_tp8DzsUdrBKuvZaSPz-21" target="S_tp8DzsUdrBKuvZaSPz-44" edge="1">
          <mxGeometry relative="1" as="geometry" />
        </mxCell>
        <mxCell id="S_tp8DzsUdrBKuvZaSPz-21" value="docs" style="aspect=fixed;perimeter=ellipsePerimeter;html=1;align=center;shadow=0;dashed=0;spacingTop=3;image;image=img/lib/active_directory/folder.svg;" parent="1" vertex="1">
          <mxGeometry x="160" y="200" width="29.2" height="40" as="geometry" />
        </mxCell>
        <mxCell id="S_tp8DzsUdrBKuvZaSPz-78" style="edgeStyle=orthogonalEdgeStyle;rounded=0;orthogonalLoop=1;jettySize=auto;html=1;endArrow=none;endFill=0;" parent="1" source="S_tp8DzsUdrBKuvZaSPz-25" target="S_tp8DzsUdrBKuvZaSPz-73" edge="1">
          <mxGeometry relative="1" as="geometry" />
        </mxCell>
        <mxCell id="S_tp8DzsUdrBKuvZaSPz-25" value="field_processors" style="aspect=fixed;perimeter=ellipsePerimeter;html=1;align=center;shadow=0;dashed=0;spacingTop=3;image;image=img/lib/active_directory/folder.svg;" parent="1" vertex="1">
          <mxGeometry x="253.64999999999998" y="204.6" width="29.2" height="40" as="geometry" />
        </mxCell>
        <mxCell id="S_tp8DzsUdrBKuvZaSPz-84" style="edgeStyle=orthogonalEdgeStyle;rounded=0;orthogonalLoop=1;jettySize=auto;html=1;endArrow=none;endFill=0;" parent="1" source="S_tp8DzsUdrBKuvZaSPz-26" target="S_tp8DzsUdrBKuvZaSPz-82" edge="1">
          <mxGeometry relative="1" as="geometry" />
        </mxCell>
        <mxCell id="S_tp8DzsUdrBKuvZaSPz-26" value="mrz-data" style="aspect=fixed;perimeter=ellipsePerimeter;html=1;align=center;shadow=0;dashed=0;spacingTop=3;image;image=img/lib/active_directory/folder.svg;" parent="1" vertex="1">
          <mxGeometry x="344.37" y="204.60000000000002" width="29.2" height="40" as="geometry" />
        </mxCell>
        <mxCell id="S_tp8DzsUdrBKuvZaSPz-91" style="edgeStyle=orthogonalEdgeStyle;rounded=0;orthogonalLoop=1;jettySize=auto;html=1;endArrow=none;endFill=0;" parent="1" source="S_tp8DzsUdrBKuvZaSPz-27" target="S_tp8DzsUdrBKuvZaSPz-89" edge="1">
          <mxGeometry relative="1" as="geometry" />
        </mxCell>
        <mxCell id="S_tp8DzsUdrBKuvZaSPz-27" value="smartid_root_files" style="aspect=fixed;perimeter=ellipsePerimeter;html=1;align=center;shadow=0;dashed=0;spacingTop=3;image;image=img/lib/active_directory/folder.svg;" parent="1" vertex="1">
          <mxGeometry x="430" y="204.60000000000002" width="29.2" height="40" as="geometry" />
        </mxCell>
        <mxCell id="S_tp8DzsUdrBKuvZaSPz-55" style="edgeStyle=orthogonalEdgeStyle;rounded=0;orthogonalLoop=1;jettySize=auto;html=1;entryX=1;entryY=0.5;entryDx=0;entryDy=0;endArrow=none;endFill=0;" parent="1" source="S_tp8DzsUdrBKuvZaSPz-43" target="S_tp8DzsUdrBKuvZaSPz-45" edge="1">
          <mxGeometry relative="1" as="geometry">
            <Array as="points">
              <mxPoint x="80" y="315" />
              <mxPoint x="80" y="386" />
            </Array>
          </mxGeometry>
        </mxCell>
        <mxCell id="S_tp8DzsUdrBKuvZaSPz-56" style="edgeStyle=orthogonalEdgeStyle;rounded=0;orthogonalLoop=1;jettySize=auto;html=1;entryX=1;entryY=0.5;entryDx=0;entryDy=0;endArrow=none;endFill=0;" parent="1" source="S_tp8DzsUdrBKuvZaSPz-43" target="S_tp8DzsUdrBKuvZaSPz-48" edge="1">
          <mxGeometry relative="1" as="geometry">
            <Array as="points">
              <mxPoint x="80" y="315" />
              <mxPoint x="80" y="464" />
            </Array>
          </mxGeometry>
        </mxCell>
        <mxCell id="S_tp8DzsUdrBKuvZaSPz-57" style="edgeStyle=orthogonalEdgeStyle;rounded=0;orthogonalLoop=1;jettySize=auto;html=1;endArrow=none;endFill=0;" parent="1" source="S_tp8DzsUdrBKuvZaSPz-43" target="S_tp8DzsUdrBKuvZaSPz-51" edge="1">
          <mxGeometry relative="1" as="geometry">
            <Array as="points">
              <mxPoint x="80" y="316" />
              <mxPoint x="80" y="535" />
            </Array>
          </mxGeometry>
        </mxCell>
        <mxCell id="S_tp8DzsUdrBKuvZaSPz-43" value="arm" style="aspect=fixed;perimeter=ellipsePerimeter;html=1;align=center;shadow=0;dashed=0;spacingTop=3;image;image=img/lib/active_directory/folder.svg;" parent="1" vertex="1">
          <mxGeometry x="90" y="300" width="21.9" height="30" as="geometry" />
        </mxCell>
        <mxCell id="S_tp8DzsUdrBKuvZaSPz-64" style="edgeStyle=orthogonalEdgeStyle;rounded=0;orthogonalLoop=1;jettySize=auto;html=1;entryX=1;entryY=0.5;entryDx=0;entryDy=0;endArrow=none;endFill=0;exitX=1;exitY=0.5;exitDx=0;exitDy=0;" parent="1" source="S_tp8DzsUdrBKuvZaSPz-44" target="S_tp8DzsUdrBKuvZaSPz-58" edge="1">
          <mxGeometry relative="1" as="geometry">
            <Array as="points">
              <mxPoint x="190" y="316" />
              <mxPoint x="190" y="386" />
            </Array>
          </mxGeometry>
        </mxCell>
        <mxCell id="S_tp8DzsUdrBKuvZaSPz-65" style="edgeStyle=orthogonalEdgeStyle;rounded=0;orthogonalLoop=1;jettySize=auto;html=1;entryX=1;entryY=0.75;entryDx=0;entryDy=0;endArrow=none;endFill=0;" parent="1" source="S_tp8DzsUdrBKuvZaSPz-44" target="S_tp8DzsUdrBKuvZaSPz-59" edge="1">
          <mxGeometry relative="1" as="geometry">
            <Array as="points">
              <mxPoint x="190" y="316" />
              <mxPoint x="190" y="470" />
            </Array>
          </mxGeometry>
        </mxCell>
        <mxCell id="S_tp8DzsUdrBKuvZaSPz-66" style="edgeStyle=orthogonalEdgeStyle;rounded=0;orthogonalLoop=1;jettySize=auto;html=1;endArrow=none;endFill=0;exitX=1;exitY=0.5;exitDx=0;exitDy=0;" parent="1" source="S_tp8DzsUdrBKuvZaSPz-44" target="S_tp8DzsUdrBKuvZaSPz-60" edge="1">
          <mxGeometry relative="1" as="geometry">
            <Array as="points">
              <mxPoint x="190" y="316" />
              <mxPoint x="190" y="535" />
            </Array>
          </mxGeometry>
        </mxCell>
        <mxCell id="S_tp8DzsUdrBKuvZaSPz-44" value="..." style="aspect=fixed;perimeter=ellipsePerimeter;html=1;align=center;shadow=0;dashed=0;spacingTop=3;image;image=img/lib/active_directory/folder.svg;" parent="1" vertex="1">
          <mxGeometry x="141.45999999999998" y="300.8" width="21.9" height="30" as="geometry" />
        </mxCell>
        <mxCell id="S_tp8DzsUdrBKuvZaSPz-45" value="field_processors" style="aspect=fixed;perimeter=ellipsePerimeter;html=1;align=center;shadow=0;dashed=0;spacingTop=3;image;image=img/lib/active_directory/folder.svg;" parent="1" vertex="1">
          <mxGeometry x="40" y="372.6" width="20" height="27.4" as="geometry" />
        </mxCell>
        <mxCell id="S_tp8DzsUdrBKuvZaSPz-48" value="templates" style="aspect=fixed;perimeter=ellipsePerimeter;html=1;align=center;shadow=0;dashed=0;spacingTop=3;image;image=img/lib/active_directory/folder.svg;" parent="1" vertex="1">
          <mxGeometry x="40" y="450" width="20" height="27.4" as="geometry" />
        </mxCell>
        <mxCell id="S_tp8DzsUdrBKuvZaSPz-58" value="field_processors" style="aspect=fixed;perimeter=ellipsePerimeter;html=1;align=center;shadow=0;dashed=0;spacingTop=3;image;image=img/lib/active_directory/folder.svg;" parent="1" vertex="1">
          <mxGeometry x="150" y="372.6" width="20" height="27.4" as="geometry" />
        </mxCell>
        <mxCell id="S_tp8DzsUdrBKuvZaSPz-59" value="templates" style="aspect=fixed;perimeter=ellipsePerimeter;html=1;align=center;shadow=0;dashed=0;spacingTop=3;image;image=img/lib/active_directory/folder.svg;" parent="1" vertex="1">
          <mxGeometry x="150" y="450" width="20" height="27.4" as="geometry" />
        </mxCell>
        <mxCell id="S_tp8DzsUdrBKuvZaSPz-75" value="" style="group" parent="1" vertex="1" connectable="0">
          <mxGeometry x="260" y="290" width="20.460000000000036" height="30" as="geometry" />
        </mxCell>
        <mxCell id="S_tp8DzsUdrBKuvZaSPz-71" value="common fields&lt;br&gt;processors files&amp;nbsp;" style="verticalLabelPosition=bottom;html=1;verticalAlign=top;strokeWidth=1;align=center;outlineConnect=0;dashed=0;outlineConnect=0;shape=mxgraph.aws3d.file;aspect=fixed;strokeColor=#292929;" parent="S_tp8DzsUdrBKuvZaSPz-75" vertex="1">
          <mxGeometry x="11.730000000000018" width="8.73" height="20" as="geometry" />
        </mxCell>
        <mxCell id="S_tp8DzsUdrBKuvZaSPz-72" value="" style="verticalLabelPosition=bottom;html=1;verticalAlign=top;strokeWidth=1;align=center;outlineConnect=0;dashed=0;outlineConnect=0;shape=mxgraph.aws3d.file;aspect=fixed;strokeColor=#292929;" parent="S_tp8DzsUdrBKuvZaSPz-75" vertex="1">
          <mxGeometry x="9.370000000000005" y="10" width="8.73" height="20" as="geometry" />
        </mxCell>
        <mxCell id="S_tp8DzsUdrBKuvZaSPz-73" value="" style="verticalLabelPosition=bottom;html=1;verticalAlign=top;strokeWidth=1;align=center;outlineConnect=0;dashed=0;outlineConnect=0;shape=mxgraph.aws3d.file;aspect=fixed;strokeColor=#292929;" parent="S_tp8DzsUdrBKuvZaSPz-75" vertex="1">
          <mxGeometry x="3" width="8.73" height="20" as="geometry" />
        </mxCell>
        <mxCell id="S_tp8DzsUdrBKuvZaSPz-74" value="" style="verticalLabelPosition=bottom;html=1;verticalAlign=top;strokeWidth=1;align=center;outlineConnect=0;dashed=0;outlineConnect=0;shape=mxgraph.aws3d.file;aspect=fixed;strokeColor=#292929;" parent="S_tp8DzsUdrBKuvZaSPz-75" vertex="1">
          <mxGeometry y="9" width="8.73" height="20" as="geometry" />
        </mxCell>
        <mxCell id="S_tp8DzsUdrBKuvZaSPz-76" value="" style="group" parent="1" vertex="1" connectable="0">
          <mxGeometry x="151.63" y="525" width="20.460000000000008" height="30" as="geometry" />
        </mxCell>
        <mxCell id="S_tp8DzsUdrBKuvZaSPz-60" value="files for &lt;br&gt;documents &lt;br&gt;detection" style="verticalLabelPosition=bottom;html=1;verticalAlign=top;strokeWidth=1;align=center;outlineConnect=0;dashed=0;outlineConnect=0;shape=mxgraph.aws3d.file;aspect=fixed;strokeColor=#292929;" parent="S_tp8DzsUdrBKuvZaSPz-76" vertex="1">
          <mxGeometry x="11.730000000000018" width="8.73" height="20" as="geometry" />
        </mxCell>
        <mxCell id="S_tp8DzsUdrBKuvZaSPz-61" value="" style="verticalLabelPosition=bottom;html=1;verticalAlign=top;strokeWidth=1;align=center;outlineConnect=0;dashed=0;outlineConnect=0;shape=mxgraph.aws3d.file;aspect=fixed;strokeColor=#292929;" parent="S_tp8DzsUdrBKuvZaSPz-76" vertex="1">
          <mxGeometry x="9.370000000000005" y="10" width="8.73" height="20" as="geometry" />
        </mxCell>
        <mxCell id="S_tp8DzsUdrBKuvZaSPz-62" value="" style="verticalLabelPosition=bottom;html=1;verticalAlign=top;strokeWidth=1;align=center;outlineConnect=0;dashed=0;outlineConnect=0;shape=mxgraph.aws3d.file;aspect=fixed;strokeColor=#292929;" parent="S_tp8DzsUdrBKuvZaSPz-76" vertex="1">
          <mxGeometry x="3" width="8.73" height="20" as="geometry" />
        </mxCell>
        <mxCell id="S_tp8DzsUdrBKuvZaSPz-63" value="" style="verticalLabelPosition=bottom;html=1;verticalAlign=top;strokeWidth=1;align=center;outlineConnect=0;dashed=0;outlineConnect=0;shape=mxgraph.aws3d.file;aspect=fixed;strokeColor=#292929;" parent="S_tp8DzsUdrBKuvZaSPz-76" vertex="1">
          <mxGeometry y="9" width="8.73" height="20" as="geometry" />
        </mxCell>
        <mxCell id="S_tp8DzsUdrBKuvZaSPz-77" value="" style="group" parent="1" vertex="1" connectable="0">
          <mxGeometry x="41.629999999999995" y="525" width="20.460000000000008" height="30" as="geometry" />
        </mxCell>
        <mxCell id="S_tp8DzsUdrBKuvZaSPz-51" value="files for &lt;br&gt;documents &lt;br&gt;detection" style="verticalLabelPosition=bottom;html=1;verticalAlign=top;strokeWidth=1;align=center;outlineConnect=0;dashed=0;outlineConnect=0;shape=mxgraph.aws3d.file;aspect=fixed;strokeColor=#292929;" parent="S_tp8DzsUdrBKuvZaSPz-77" vertex="1">
          <mxGeometry x="11.730000000000004" width="8.73" height="20" as="geometry" />
        </mxCell>
        <mxCell id="S_tp8DzsUdrBKuvZaSPz-52" value="" style="verticalLabelPosition=bottom;html=1;verticalAlign=top;strokeWidth=1;align=center;outlineConnect=0;dashed=0;outlineConnect=0;shape=mxgraph.aws3d.file;aspect=fixed;strokeColor=#292929;" parent="S_tp8DzsUdrBKuvZaSPz-77" vertex="1">
          <mxGeometry x="9.370000000000005" y="10" width="8.73" height="20" as="geometry" />
        </mxCell>
        <mxCell id="S_tp8DzsUdrBKuvZaSPz-53" value="" style="verticalLabelPosition=bottom;html=1;verticalAlign=top;strokeWidth=1;align=center;outlineConnect=0;dashed=0;outlineConnect=0;shape=mxgraph.aws3d.file;aspect=fixed;strokeColor=#292929;" parent="S_tp8DzsUdrBKuvZaSPz-77" vertex="1">
          <mxGeometry x="3" width="8.73" height="20" as="geometry" />
        </mxCell>
        <mxCell id="S_tp8DzsUdrBKuvZaSPz-54" value="" style="verticalLabelPosition=bottom;html=1;verticalAlign=top;strokeWidth=1;align=center;outlineConnect=0;dashed=0;outlineConnect=0;shape=mxgraph.aws3d.file;aspect=fixed;strokeColor=#292929;" parent="S_tp8DzsUdrBKuvZaSPz-77" vertex="1">
          <mxGeometry y="9" width="8.73" height="20" as="geometry" />
        </mxCell>
        <mxCell id="S_tp8DzsUdrBKuvZaSPz-79" value="" style="group" parent="1" vertex="1" connectable="0">
          <mxGeometry x="353.11" y="290" width="20.460000000000036" height="30" as="geometry" />
        </mxCell>
        <mxCell id="S_tp8DzsUdrBKuvZaSPz-80" value="common files&lt;br&gt;for mrz-zone&lt;br&gt;in document&amp;nbsp;" style="verticalLabelPosition=bottom;html=1;verticalAlign=top;strokeWidth=1;align=center;outlineConnect=0;dashed=0;outlineConnect=0;shape=mxgraph.aws3d.file;aspect=fixed;strokeColor=#292929;" parent="S_tp8DzsUdrBKuvZaSPz-79" vertex="1">
          <mxGeometry x="11.730000000000018" width="8.73" height="20" as="geometry" />
        </mxCell>
        <mxCell id="S_tp8DzsUdrBKuvZaSPz-81" value="" style="verticalLabelPosition=bottom;html=1;verticalAlign=top;strokeWidth=1;align=center;outlineConnect=0;dashed=0;outlineConnect=0;shape=mxgraph.aws3d.file;aspect=fixed;strokeColor=#292929;" parent="S_tp8DzsUdrBKuvZaSPz-79" vertex="1">
          <mxGeometry x="9.370000000000005" y="10" width="8.73" height="20" as="geometry" />
        </mxCell>
        <mxCell id="S_tp8DzsUdrBKuvZaSPz-82" value="" style="verticalLabelPosition=bottom;html=1;verticalAlign=top;strokeWidth=1;align=center;outlineConnect=0;dashed=0;outlineConnect=0;shape=mxgraph.aws3d.file;aspect=fixed;strokeColor=#292929;" parent="S_tp8DzsUdrBKuvZaSPz-79" vertex="1">
          <mxGeometry x="3" width="8.73" height="20" as="geometry" />
        </mxCell>
        <mxCell id="S_tp8DzsUdrBKuvZaSPz-83" value="" style="verticalLabelPosition=bottom;html=1;verticalAlign=top;strokeWidth=1;align=center;outlineConnect=0;dashed=0;outlineConnect=0;shape=mxgraph.aws3d.file;aspect=fixed;strokeColor=#292929;" parent="S_tp8DzsUdrBKuvZaSPz-79" vertex="1">
          <mxGeometry y="9" width="8.73" height="20" as="geometry" />
        </mxCell>
        <mxCell id="S_tp8DzsUdrBKuvZaSPz-86" value="" style="group" parent="1" vertex="1" connectable="0">
          <mxGeometry x="470" y="290" width="20.460000000000036" height="30" as="geometry" />
        </mxCell>
        <mxCell id="S_tp8DzsUdrBKuvZaSPz-87" value="json file for&lt;br&gt;every dir in docs,&lt;br&gt;which contain list &lt;br&gt;of documents in this dir" style="verticalLabelPosition=bottom;html=1;verticalAlign=top;strokeWidth=1;align=center;outlineConnect=0;dashed=0;outlineConnect=0;shape=mxgraph.aws3d.file;aspect=fixed;strokeColor=#292929;" parent="S_tp8DzsUdrBKuvZaSPz-86" vertex="1">
          <mxGeometry x="11.730000000000018" width="8.73" height="20" as="geometry" />
        </mxCell>
        <mxCell id="S_tp8DzsUdrBKuvZaSPz-88" value="" style="verticalLabelPosition=bottom;html=1;verticalAlign=top;strokeWidth=1;align=center;outlineConnect=0;dashed=0;outlineConnect=0;shape=mxgraph.aws3d.file;aspect=fixed;strokeColor=#292929;" parent="S_tp8DzsUdrBKuvZaSPz-86" vertex="1">
          <mxGeometry x="9.370000000000005" y="10" width="8.73" height="20" as="geometry" />
        </mxCell>
        <mxCell id="S_tp8DzsUdrBKuvZaSPz-89" value="" style="verticalLabelPosition=bottom;html=1;verticalAlign=top;strokeWidth=1;align=center;outlineConnect=0;dashed=0;outlineConnect=0;shape=mxgraph.aws3d.file;aspect=fixed;strokeColor=#292929;" parent="S_tp8DzsUdrBKuvZaSPz-86" vertex="1">
          <mxGeometry x="3" width="8.73" height="20" as="geometry" />
        </mxCell>
        <mxCell id="S_tp8DzsUdrBKuvZaSPz-90" value="" style="verticalLabelPosition=bottom;html=1;verticalAlign=top;strokeWidth=1;align=center;outlineConnect=0;dashed=0;outlineConnect=0;shape=mxgraph.aws3d.file;aspect=fixed;strokeColor=#292929;" parent="S_tp8DzsUdrBKuvZaSPz-86" vertex="1">
          <mxGeometry y="9" width="8.73" height="20" as="geometry" />
        </mxCell>
      </root>
    </mxGraphModel>
  </diagram>
</mxfile>
